<?xml version="1.0" encoding="utf-8"?>
<!-- Generator: Adobe Illustrator 23.1.0, SVG Export Plug-In . SVG Version: 6.00 Build 0)  -->
<svg version="1.1" id="Layer_1" xmlns="http://www.w3.org/2000/svg" xmlns:xlink="http://www.w3.org/1999/xlink" x="0px" y="0px"
	 viewBox="0 0 500 500" style="enable-background:new 0 0 500 500;" xml:space="preserve">
<style type="text/css">
	.st0{fill:#FFFFFF;}
</style>
<g>
	<path class="st0" d="M499,236.4c-2.6-50.7-19.3-96.4-50-136.8c-37.9-49.8-87.8-81.1-149.1-94c-11.8-2.5-23.9-3-35.9-4.5
		c-1.4-0.2-2.8-0.7-4.2-1.1c-6.5,0-13.1,0-19.6,0c-1.3,0.4-2.5,1-3.8,1C185.7,3.6,140,20.4,99.6,51c-49.8,37.9-81.1,87.8-94,149.1
		c-2.5,11.8-3,23.9-4.5,35.9c-0.2,1.4-0.7,2.8-1.1,4.2c0,6.5,0,13.1,0,19.6c0.4,1.3,1,2.5,1,3.8c2.6,50.7,19.3,96.4,50,136.8
		c37.9,49.8,87.8,81.1,149.1,94.1c11.8,2.5,23.9,3,35.9,4.5c1.4,0.2,2.8,0.7,4.2,1.1c6.5,0,13.1,0,19.6,0c1.3-0.4,2.5-1,3.8-1
		c50.7-2.6,96.4-19.3,136.8-50c49.8-37.9,81.1-87.9,94.1-149.1c2.5-11.8,3-23.9,4.5-35.9c0.2-1.4,0.7-2.8,1.1-4.2
		c0-6.5,0-13.1,0-19.6C499.6,238.9,499,237.7,499,236.4z M477.8,254.6c-2.2,121.2-103.8,225.7-233,223.1
		C124.1,475.3,19.3,374,22.3,244.2c2.8-121.2,103.6-223,228-221.7C374.5,21.2,480.1,125.5,477.8,254.6z"/>
	<path class="st0" d="M313.8,106.7c-19.7,0.1-39.5-0.5-59.1,1c-17.3,1.3-29.7,11.2-36.2,27.7c-3.8,9.6-5.3,19.7-5.6,29.9
		c-0.4,11-0.2,22.1-0.1,33.1c0,3.4-1.2,4.6-4.5,4.6c-6.9-0.1-13.9,0.1-20.8-0.1c-2.8-0.1-4.2,0.6-4.2,3.9c0.1,13.1,0.1,26.1,0,39.2
		c0,2.8,0.9,3.9,3.8,3.8c6.5-0.1,13.1-0.1,19.6-0.1c6,0,6,0,6,5.9c0,44.1,0,88.2,0,132.3c0,5.7,0,5.7,5.9,5.7c11.4,0,22.9,0,34.3,0
		c5.8,0,5.8,0,5.8-5.8c0-44.2,0-88.5,0-132.7c0-5.4,0-5.4,5.4-5.4c12.7,0,25.3-0.2,38,0.1c3.9,0.1,5-1.6,5.4-4.8
		c0.4-3.1,0.9-6.2,1.4-9.3c1.7-10.7,3.3-21.4,5.1-32.8c-2.4,0-4,0-5.6,0c-15,0-29.9-0.1-44.9,0.1c-3.5,0-4.9-1.2-4.8-4.7
		c0.4-7.9,0.4-15.8,0.7-23.6c0.5-13.8,8.2-21.2,22-21.3c10.5,0,21,0,31.4,0c2,0,3.8,0,3.8-2.9c0-13.6,0-27.2-0.1-40.8
		C316.5,108.6,314.7,106.7,313.8,106.7z"/>
</g>
</svg>
