<?xml version="1.0" encoding="utf-8"?>
<!-- Generator: Adobe Illustrator 23.1.0, SVG Export Plug-In . SVG Version: 6.00 Build 0)  -->
<svg version="1.1" id="Layer_1" xmlns="http://www.w3.org/2000/svg" xmlns:xlink="http://www.w3.org/1999/xlink" x="0px" y="0px"
	 viewBox="0 0 500 500" style="enable-background:new 0 0 500 500;" xml:space="preserve">
<style type="text/css">
	.st0{fill:#FFFFFF;}
</style>
<g>
	<path class="st0" d="M423.4,317c0-22.3,0-44.7,0-67c0-5.5,0-11,0-16.4c0,5.5,0,11,0,16.4C423.3,272.3,423.3,294.7,423.4,317z"/>
	<path class="st0" d="M499.4,236.4c-2.6-50.7-19.3-96.4-50-136.8c-37.9-49.8-87.9-81.1-149.1-94.1c-11.8-2.5-23.9-3-35.9-4.5
		c-1.4-0.2-2.8-0.7-4.2-1.1c-6.5,0-13.1,0-19.6,0c-1.3,0.4-2.5,1-3.8,1c-50.7,2.6-96.4,19.3-136.8,50c-49.7,38-81,88-93.9,149.2
		C3.6,211.9,3,224,1.5,236c-0.2,1.4-0.7,2.8-1.1,4.2c0,6.5,0,13.1,0,19.6c0.4,1.3,1,2.5,1,3.8c2.6,50.7,19.3,96.4,50,136.8
		c37.9,49.8,87.9,81.1,149.1,94.1c11.8,2.5,23.9,3,35.9,4.5c1.4,0.2,2.8,0.7,4.2,1.1c6.5,0,13.1,0,19.6,0c1.3-0.4,2.5-1,3.8-1
		c50.7-2.6,96.4-19.3,136.8-50c49.8-37.9,81.1-87.9,94.1-149.1c2.5-11.8,3-23.9,4.5-35.9c0.2-1.4,0.7-2.8,1.1-4.2
		c0-6.5,0-13.1,0-19.6C500.1,238.9,499.5,237.7,499.4,236.4z M245.8,477.8c-121.1-2.2-225.7-103.7-223.1-233
		C25.2,124,126.5,19.5,255.9,22.3C377.3,24.9,479.1,125.8,478,250C479.5,374.4,374.9,480.1,245.8,477.8z"/>
	<path class="st0" d="M317.7,77.2c-44.4,0-88.8-0.1-133.2,0.1c-6.5,0-13.1,0.5-19.4,1.7c-52.1,9.8-87.5,55.7-87.5,104
		c0,44.3-0.1,88.5,0.1,132.8c0,6.5,0.5,13.1,1.7,19.4c9.7,52.1,55.5,87.6,103.9,87.7c44.3,0,88.5,0.1,132.7-0.1
		c8,0,16.1-0.8,23.8-2.5c50.4-11.5,83.5-56.5,83.5-103.2c0-22.3,0-44.7,0-67c0-5.5,0-11,0-16.4c0-16.4,0.1-32.9-0.1-49.3
		c-0.1-6.5-0.5-13.1-1.7-19.4C411.9,112.7,366.1,77.2,317.7,77.2z M392.2,315.1c0,37.4-27.6,69.7-64.6,75.6c-4.1,0.7-8.4,0.9-12.6,1
		c-10.8,0-21.5,0.1-32.3,0.1s-21.5,0-32.3,0c-21.1,0-42.2,0-63.3,0c-39,0-70-25.6-77.3-64c-0.8-4.1-1.1-8.4-1.1-12.6
		c-0.1-43.4-0.1-86.8,0-130.3c0-38.7,29.3-71.4,67.8-75.8c3.9-0.4,7.9-0.7,11.8-0.7c42.1-0.1,84.1,0,126.2,0
		c36.4,0,67,23.9,75.4,59.2c1.3,5.6,2.1,11.5,2.1,17.3C392.2,228.3,392.2,271.7,392.2,315.1z"/>
	<path class="st0" d="M187.2,391.7c21.1,0,42.2,0,63.3,0c10.8,0,21.5,0,32.3,0c-10.8,0-21.5,0-32.3,0
		C229.4,391.7,208.3,391.7,187.2,391.7z"/>
	<path class="st0" d="M250.7,163.8c-47.5-0.3-85.3,38-86.5,83.7c-1.3,49.5,38.2,87.7,83.9,88.8c49.3,1.2,87.6-38.3,88.6-84.2
		C337.8,202.8,297.9,163.6,250.7,163.8z M250.4,304.8c-31.1-0.1-54.9-24.3-54.7-55.2c0.3-31.3,24.7-54.6,55.1-54.4
		c31.2,0.2,53.9,24.4,54.7,55C304.5,281,281.2,304.8,250.4,304.8z"/>
	<path class="st0" d="M343.6,145.8c-5.9,0.1-11,5.1-11,10.9c0,5.5,5.5,11,11,11.2c5.9,0.2,11.1-5.1,11.1-11.2
		C354.7,150.4,349.9,145.7,343.6,145.8z"/>
</g>
</svg>
