<?xml version="1.0" encoding="utf-8"?>
<!-- Generator: Adobe Illustrator 23.1.0, SVG Export Plug-In . SVG Version: 6.00 Build 0)  -->
<svg version="1.1" id="Layer_1" xmlns="http://www.w3.org/2000/svg" xmlns:xlink="http://www.w3.org/1999/xlink" x="0px" y="0px"
	 viewBox="0 0 500 500" style="enable-background:new 0 0 500 500;" xml:space="preserve">
<style type="text/css">
	.st0{fill:#FFFFFF;}
</style>
<g>
	<path class="st0" d="M499.5,235.9c-2.2-43.5-15-83.6-38.6-120.1c-38-58.6-91.3-95.3-159.5-110.4c-20.4-4.5-41.2-6.4-62-5.1
		C156.2,5.8,90.4,42.7,43,111.4C22.1,141.6,9.3,175.3,4,211.6c-1.2,8.2-1.7,16.5-2.5,24.7c-0.1,1.3-0.7,2.6-1,3.8
		c0,6.5,0,13.1,0,19.6c0.4,1.4,1,2.8,1.1,4.2c2.5,47,17.2,89.8,44.2,128.2C82.1,444,131.4,477.5,193,492.6c15.9,3.9,32,6.1,48.4,6.4
		c1.7,0,3.4,0.7,5,1c2.7,0,5.4,0,8.2,0c1.5-0.4,3.1-1,4.6-1c62.9-2.3,117.2-25.3,162.9-68.2c35-32.8,58.2-72.9,70.2-119.4
		c4-15.4,6.6-31.1,7.1-47c0.1-1.5,0.7-3.1,1.1-4.6c0-6.5,0-13.1,0-19.6C500.2,238.7,499.5,237.4,499.5,235.9z M245.9,477.6
		C123.2,475.4,20,372.8,22.7,244.6c2.5-117.8,98.4-223,228.7-222.6c129.4,0.4,228,106.6,226.6,228.1
		C479.4,373,376.7,479.9,245.9,477.6z"/>
	<path class="st0" d="M328.8,98.2c-35.3-19.8-73.4-23.8-112.1-14.3c-59.5,14.6-109.7,68.1-96.5,144c4.2,23.9,17.3,40.3,41.4,47.1
		c3.3,0.9,4.6,0,6-2.8c5.5-11.5,4.8-22.4-2.5-32.8c-10.6-15.1-11.3-31.9-8.3-49.3c3.4-20.3,13.2-37.4,28.3-51.2
		c26.9-24.5,58.3-35.5,94.3-26.3c27.8,7.1,47,24.5,53.9,53.4c4.5,18.9,4.3,37.9,0.5,57c-3.8,18.8-10.3,36.3-22.7,51.3
		c-14.1,17.1-34.5,23.3-54,16c-8.4-3.1-14.4-8.8-15.5-17.8c-0.8-6.1-1-12.6,0.4-18.5c3.4-14.4,7.8-28.6,11.9-42.8
		c3.2-11.1,6.4-22.2,5.5-34c-0.5-7.2-3.4-13.1-9.5-17.3c-12.8-8.9-30.1-7.2-40.2,5.3c-16.9,20.8-19.9,44.4-10.6,69.4
		c1.5,4.1,1.9,7.6,0.9,11.7c-6.3,24.6-12.7,49.2-18.6,73.9c-6.8,28.1-10.1,56.6-7.9,85.6c0.3,4.4,1.1,8.7,1.7,13.7
		c1.6-1.3,2.6-1.9,3.5-2.7c10.1-8.4,17.6-18.8,23.6-30.4c10.8-20.7,16.2-43.2,21.1-65.8c1.1-5.1,2.1-10.3,3.5-16.5
		c5.4,3.6,9.9,6.4,14.1,9.6c16.8,12.9,35.7,15,55.8,11.5c25.5-4.5,45.1-18.5,59.7-39.4c23.7-34.1,30.3-72.2,24.8-112.7
		C376.4,139.3,358.1,114.6,328.8,98.2z"/>
</g>
</svg>
