<svg id="Layer_1" data-name="Layer 1" xmlns="http://www.w3.org/2000/svg" viewBox="0 0 1254.75 491.5"><defs><style>.cls-1{fill:#fff;}</style></defs><path class="cls-1" d="M349.67,300.59a127.5,127.5,0,1,0-239.45-.29,91.52,91.52,0,0,0,49.16,176.18L110.7,427.8a7.5,7.5,0,1,1,10.6-10.6l53.92,53.91A91.85,91.85,0,0,0,217,433.68V297a12.5,12.5,0,0,1,25,0V433.68a91.79,91.79,0,0,0,14.63,18.84l81.28-81.27a7.5,7.5,0,1,1,10.6,10.6l-80.35,80.36a91.51,91.51,0,1,0,81.51-161.62Z" transform="translate(-46.5 -129)"/><path class="cls-1" d="M242,467.15V433.68a91.05,91.05,0,0,1-12.5-46.18A91.05,91.05,0,0,1,217,433.68v79.21l-41.78-41.78a90.87,90.87,0,0,1-15.84,5.37L212.7,529.8a7.53,7.53,0,0,0,4.3,2.13V608a12.5,12.5,0,0,0,25,0V486a7.38,7.38,0,0,0,4.51-2.15l21.65-21.64a92.13,92.13,0,0,1-11.53-9.69Z" transform="translate(-46.5 -129)"/><path class="cls-1" d="M229.43,384c0,1.17.07,2.33.07,3.51,0-1.17,0-2.34.07-3.51Z" transform="translate(-46.5 -129)"/><path class="cls-1" d="M482.71,471.84v-273h-97.5V143.28H646.32v55.58H549.05v273Z" transform="translate(-46.5 -129)"/><path class="cls-1" d="M723.64,471.84h-63v-238h58.49v33.84q15-24,27-31.6a49.67,49.67,0,0,1,27.23-7.62q21.52,0,41.46,11.88l-19.49,54.91q-15.92-10.31-29.59-10.31-13.21,0-22.41,7.28T728.9,318.54q-5.26,19.05-5.26,79.79Z" transform="translate(-46.5 -129)"/><path class="cls-1" d="M979.81,396.08l62.75,10.54q-12.11,34.51-38.21,52.55T939,477.22q-62.09,0-91.89-40.57-23.53-32.49-23.53-82,0-59.16,30.92-92.67t78.22-33.51q53.12,0,83.82,35.08T1045.92,371H888.14q.68,28,15.24,43.59t36.31,15.58q14.79,0,24.88-8.07T979.81,396.08Zm3.58-63.65q-.66-27.33-14.12-41.57t-32.72-14.23q-20.62,0-34.06,15t-13.23,40.79Z" transform="translate(-46.5 -129)"/><path class="cls-1" d="M1235.08,396.08l62.75,10.54q-12.09,34.51-38.21,52.55t-65.33,18.05q-62.08,0-91.89-40.57-23.54-32.49-23.53-82,0-59.16,30.93-92.67T1188,228.44q53.12,0,83.82,35.08T1301.2,371H1143.42q.66,28,15.24,43.59t36.3,15.58q14.79,0,24.88-8.07T1235.08,396.08Zm3.59-63.65q-.68-27.33-14.12-41.57t-32.72-14.23q-20.62,0-34.07,15t-13.22,40.79Z" transform="translate(-46.5 -129)"/><path class="cls-1" d="M484,584.09v-93h30.14q17.15,0,22.34,1.4a24.39,24.39,0,0,1,13.39,9.1q5.4,7,5.39,18.12,0,8.57-3.11,14.41a25.43,25.43,0,0,1-7.9,9.17,27.22,27.22,0,0,1-9.74,4.41Q527.82,549,515.06,549H502.81v35.09Zm18.78-77.29v26.4h10.28q11.11,0,14.85-1.46a12.28,12.28,0,0,0,5.87-4.57,12.47,12.47,0,0,0,2.13-7.23,12.05,12.05,0,0,0-3-8.38,13,13,0,0,0-7.56-4.13q-3.36-.63-13.51-.63Z" transform="translate(-46.5 -129)"/><path class="cls-1" d="M588.36,491.06v34.21Q597,515.17,609,515.18a26.27,26.27,0,0,1,11.11,2.28,18.09,18.09,0,0,1,7.45,5.84,21.12,21.12,0,0,1,3.43,7.87,70.59,70.59,0,0,1,.92,13.39v39.53H614.06v-35.6q0-10.59-1-13.45a8.83,8.83,0,0,0-3.58-4.54,11.55,11.55,0,0,0-6.44-1.68,14.78,14.78,0,0,0-7.94,2.16,12.48,12.48,0,0,0-5.11,6.5q-1.61,4.35-1.61,12.85v33.76H570.52v-93Z" transform="translate(-46.5 -129)"/><path class="cls-1" d="M645.85,549.44a36.42,36.42,0,0,1,4.38-17.19,30.06,30.06,0,0,1,12.41-12.7,36.88,36.88,0,0,1,17.92-4.37q15.3,0,25.07,9.93t9.77,25.1q0,15.28-9.87,25.35t-24.84,10.06A39.12,39.12,0,0,1,663,581.43a28.73,28.73,0,0,1-12.79-12.28Q645.85,561.05,645.85,549.44Zm18.28,1q0,10,4.76,15.35a15.55,15.55,0,0,0,23.44,0q4.74-5.32,4.73-15.48,0-9.9-4.73-15.23a15.55,15.55,0,0,0-23.44,0Q664.12,540.37,664.13,550.4Z" transform="translate(-46.5 -129)"/><path class="cls-1" d="M760.27,516.7v14.21H748.08v27.16q0,8.25.35,9.62a3.87,3.87,0,0,0,1.59,2.25,5,5,0,0,0,3,.89,23.1,23.1,0,0,0,7.17-1.71L761.73,583a35.44,35.44,0,0,1-14.09,2.67A22.28,22.28,0,0,1,739,584a12.64,12.64,0,0,1-5.68-4.19,16.38,16.38,0,0,1-2.51-6.95,86.53,86.53,0,0,1-.57-12.56V530.91H722V516.7h8.19V503.31l17.89-10.41v23.8Z" transform="translate(-46.5 -129)"/><path class="cls-1" d="M768.52,549.44a36.42,36.42,0,0,1,4.38-17.19,30,30,0,0,1,12.4-12.7,36.92,36.92,0,0,1,17.93-4.37q15.28,0,25.07,9.93t9.77,25.1q0,15.28-9.87,25.35t-24.84,10.06a39.2,39.2,0,0,1-17.68-4.19,28.71,28.71,0,0,1-12.78-12.28Q768.52,561.05,768.52,549.44Zm18.27,1q0,10,4.76,15.35a15.56,15.56,0,0,0,23.45,0q4.72-5.32,4.73-15.48,0-9.9-4.73-15.23a15.56,15.56,0,0,0-23.45,0Q786.8,540.37,786.79,550.4Z" transform="translate(-46.5 -129)"/><path class="cls-1" d="M850.38,588.54,870.75,591q.51,3.56,2.35,4.89c1.69,1.27,4.36,1.9,8,1.9q7,0,10.47-2.09a8.71,8.71,0,0,0,3.56-4.51q.82-2.22.82-8.19v-9.83q-8,10.92-20.18,10.91-13.57,0-21.51-11.48Q848,563.53,848,550q0-16.95,8.16-25.9a26.3,26.3,0,0,1,20.27-8.94q12.51,0,20.63,11V516.7h16.69v60.48q0,11.93-2,17.83a22.06,22.06,0,0,1-5.52,9.26,24.45,24.45,0,0,1-9.49,5.27,50,50,0,0,1-15,1.9q-17.13,0-24.3-5.87a18.41,18.41,0,0,1-7.17-14.88C850.32,590.1,850.34,589.38,850.38,588.54ZM866.31,549q0,10.72,4.15,15.71a12.87,12.87,0,0,0,10.25,5,14.14,14.14,0,0,0,11-5.11q4.51-5.12,4.51-15.14,0-10.47-4.31-15.54A13.71,13.71,0,0,0,881,528.82a13.19,13.19,0,0,0-10.57,5Q866.31,538.78,866.31,549Z" transform="translate(-46.5 -129)"/><path class="cls-1" d="M948.49,584.09H930.66V516.7h16.56v9.58q4.24-6.79,7.64-8.95a14.17,14.17,0,0,1,7.72-2.15,22.61,22.61,0,0,1,11.73,3.36l-5.52,15.55a15.59,15.59,0,0,0-8.37-2.92,9.94,9.94,0,0,0-6.35,2.06c-1.73,1.38-3.1,3.86-4.09,7.46s-1.49,11.12-1.49,22.59Z" transform="translate(-46.5 -129)"/><path class="cls-1" d="M995.32,537.26l-16.18-2.92q2.73-9.76,9.39-14.47t19.8-4.69q11.92,0,17.77,2.82t8.22,7.17q2.37,4.35,2.38,16l-.2,20.82a72.24,72.24,0,0,0,.86,13.1,38,38,0,0,0,3.21,9h-17.65c-.46-1.18-1-2.94-1.71-5.26-.29-1.06-.51-1.76-.63-2.1a32.21,32.21,0,0,1-9.78,6.66,27.83,27.83,0,0,1-11.1,2.23q-10.41,0-16.41-5.65a18.81,18.81,0,0,1-6-14.28A19.19,19.19,0,0,1,980,555.5a17.78,17.78,0,0,1,7.64-6.85q4.92-2.39,14.19-4.16,12.5-2.34,17.32-4.37v-1.78q0-5.15-2.54-7.33t-9.58-2.19q-4.75,0-7.43,1.87T995.32,537.26Zm23.86,14.47q-3.42,1.14-10.85,2.73t-9.71,3.11a7.42,7.42,0,0,0-3.49,6.28,8.74,8.74,0,0,0,2.79,6.47,9.74,9.74,0,0,0,7.11,2.73,15.48,15.48,0,0,0,9.2-3.17,11.15,11.15,0,0,0,4.25-5.9c.47-1.53.7-4.42.7-8.7Z" transform="translate(-46.5 -129)"/><path class="cls-1" d="M1053.77,516.7h16.62v9.9a24.82,24.82,0,0,1,8.76-8.25,24.08,24.08,0,0,1,12.25-3.17q11.73,0,19.92,9.2t8.19,25.64q0,16.88-8.25,26.24t-20,9.36a22.58,22.58,0,0,1-10.12-2.23,33.9,33.9,0,0,1-9.55-7.61v34h-17.83Zm17.64,32.55q0,11.37,4.5,16.79a13.79,13.79,0,0,0,11,5.42,12.89,12.89,0,0,0,10.35-5q4.13-5,4.12-16.34,0-10.59-4.25-15.74a13.19,13.19,0,0,0-10.54-5.14,13.71,13.71,0,0,0-10.85,5Q1071.42,539.35,1071.41,549.25Z" transform="translate(-46.5 -129)"/><path class="cls-1" d="M1151.43,491.06v34.21q8.63-10.1,20.62-10.09a26.24,26.24,0,0,1,11.11,2.28,18.19,18.19,0,0,1,7.46,5.84,21.1,21.1,0,0,1,3.42,7.87,69.75,69.75,0,0,1,.92,13.39v39.53h-17.83v-35.6q0-10.59-1-13.45a8.85,8.85,0,0,0-3.59-4.54,11.53,11.53,0,0,0-6.44-1.68,14.74,14.74,0,0,0-7.93,2.16,12.43,12.43,0,0,0-5.11,6.5q-1.62,4.35-1.62,12.85v33.76H1133.6v-93Z" transform="translate(-46.5 -129)"/><path class="cls-1" d="M1204.61,516.7h19l16.12,47.85,15.74-47.85h18.47l-23.8,64.85-4.25,11.74a48.11,48.11,0,0,1-4.48,9,19.57,19.57,0,0,1-4.88,5,21.68,21.68,0,0,1-6.79,3,35.76,35.76,0,0,1-9.11,1.07,47.81,47.81,0,0,1-10.09-1.07l-1.59-14a39.55,39.55,0,0,0,7.55.83q6.22,0,9.21-3.65a25.29,25.29,0,0,0,4.57-9.3Z" transform="translate(-46.5 -129)"/></svg>