<svg id="Layer_1" data-name="Layer 1" xmlns="http://www.w3.org/2000/svg" viewBox="0 0 250 250"><title>icons</title><path d="M166.2,137.9c-2.9-11-5.5-21.1-9.6-36.5-19.2,19.9-35.5,36.4-51.2,53.3s-29.5,32.4-45.2,49.8l-17-19.3c41-21.5,65.9-60.9,103.8-92.5L111.6,82.3c-.9-28,19.7-49.7,48-50,2.7,11.1,5.4,22.2,8.7,36.2l21.3-19c10.5,7.3,10.5,7.3-7.8,31l35.3,8.8C216.5,117,196.4,136.9,166.2,137.9Z" style="fill:#fff"/><path d="M97.9,89.9c-10-41.8,25-78.5,71.4-74.2-4.9,3.4-9.4,8.7-14.8,9.9-27.4,6.6-43.5,23.2-49.6,50.5C103.9,81,100.3,85.3,97.9,89.9Z" style="fill:#fff"/><path d="M234.7,77.7c6.5,44.1-28.6,79.4-78.3,77.4,6.4-5.2,9.5-9.9,13.3-10.6,30.2-5.4,48.1-22.6,54.2-52.8C224.7,87.3,229.9,83.7,234.7,77.7Z" style="fill:#fff"/><path d="M33.8,234.6c-6.5-6.4-12.9-12.9-19.3-19.4l4.6-4.6L36.5,231Z" style="fill:#fff"/><path d="M52.4,216,33.7,195l5.5-4.8,19.3,20.5C56.4,212.4,54.4,214.2,52.4,216Z" style="fill:#fff"/></svg>