<svg id="Layer_1" data-name="Layer 1" xmlns="http://www.w3.org/2000/svg" viewBox="0 0 250 250"><title>icons</title><path d="M185.1,133.1l23.1,29.6c0-6.4-.6-12.3.2-18.1.3-2.7,3.1-5.1,4.8-7.6l4.9,3.4,6.1,4c-4.1,7.9,15.4,8.9,4.9,19.6l-16-14.2c1.7,7.9,3.5,14.5,4.4,21.1a114,114,0,0,1,.9,21c-1,10.9-7.5,17-18.3,17.1q-81,.3-162-.1c-15.5-.1-23-9.8-19.5-25.4C21,173,25.4,162.9,30.8,153c.4,1.4.7,2.8,1.2,4.9l5-4c-5.1,7.5-6.7,14.9.3,22.3a36,36,0,0,0,22.6,11.2c7.2-15,13.4-16.6,27.5-7.3,9.7-7.9,13.7-7.8,23.9.2,8.4-4,12.4-10,8.4-20.1H67.3l-1.4-2.4c2.5-2,4.9-4.1,8.9-7.5,0-10.3.1-22.9-.1-35.5,0-.9-2-1.9-3.1-2.8,1.5-11.7,3.1-23.3,4.6-35l-2.9.7L66,71.5l1.5-2.4c8.9,0,17.9-.5,26.7.2s13.5-1.4,17.5-8.3c1.4-2.2,3.9-3.8,5.8-5.7-2.6,4.3-5.3,8.6-8.1,13.3h11.8c-1.9-4.7,3.9-10.5-4-13,2-4.5,3.9-9.1,6.2-14.7l7.5,15.7c-9.5,1.2-2.7,7.7-5.5,13.8l12.1-3.7c4,.8,8,2.1,12,2.3,7.5.4,15.1-.2,22.7.3,3,.1,5.9,2,8.8,3.1l-8.1,6c0,10.2-.7,21.9.3,33.6.4,4.4,4.6,8.6,7.1,12.9l5,8.5-12.1-13.1v30.5l8.4,6.9a24.4,24.4,0,0,1-1.4,2.8H127.3c-3.6,10.2.5,15.9,8.8,19.5,10.6-7.8,13.6-7.8,24.7.3,11.6-9.7,17.5-8.3,27.3,6.7a110.4,110.4,0,0,0,10.6-4.7c10.5-6,11.5-11.6,4.8-21.4S191.2,142.4,185.1,133.1ZM111,187.8c-5.5-3.8-8.3-7.3-11.6-7.8-5.1-.8-9.1,3.1-8.1,8,.7,3.1,5.1,7,8.1,7.3S105.4,191.6,111,187.8Zm49-.4c-5.6-3.7-8.9-7.6-11.7-7.2s-7.4,4.4-7.9,7.4a6.7,6.7,0,0,0,8.2,7.9C151.9,194.8,154.6,191.4,160,187.4Zm-27,2.4c0-1.2,0-2.3.1-3.5-3-2.2-5.7-5.7-9-6.3-5.1-1-9.2,2.7-8.1,7.8.6,3.1,4.7,7.1,7.7,7.5S129.9,191.8,133,189.8Zm51.7-1.7c-5.5-4-8.6-8-11.4-7.8s-7.5,3.9-8.3,6.9c-1.3,4.9,2.5,9,7.7,8.3C176,195,179,191.7,184.7,188.1ZM74.8,199.5c3.8-5.6,7.7-8.9,7.4-11.6s-4.4-7.2-7.4-7.9c-4.9-1-8.8,2.9-7.9,8.1C67.4,191.3,70.9,194.1,74.8,199.5Z" style="fill:#fff"/></svg>