<svg id="Layer_1" data-name="Layer 1" xmlns="http://www.w3.org/2000/svg" viewBox="0 0 250 250"><title>icons</title><path d="M119.1,128.8c-13.6,0-25.8-.7-37.8.4-4,.3-8.4,4.7-11.2,8.3-5.2,6.5-10.9,9.5-19.4,8.7s-16.3-.2-26.5-.2c5.1-7,9.2-12.8,13.6-19L24.2,108.2c10.4,0,19.1,1,27.5-.2,10.6-1.6,15.2,5.4,21.1,11.6,2.1,2.2,5.1,4.8,7.8,4.9,10.2.6,20.4.3,30.6.3,2.2,0,4.5-.3,7.9-.6,0-17.8-1.1-35.3.3-52.5s-4.3-35.3-9-52.6a17.1,17.1,0,0,1,1.3-10.4c.5-1.2,6.8-1.5,7.5-.4,1.7,2.9,3.2,7.3,2.2,10.2-3.4,9.5,1.4,15.7,7.2,21.9,14.7,15.9,25.1,34,26.5,55.9.5,9.1-1.2,18.3-1.9,27.9h32.4c.3-6.5.6-12.6.9-20.6l39.3,22.5-39.2,24c-.4-7.7-.7-14-1.1-20.8H152.8c.9,9.4,2.8,18.8,2.3,28.1-1.3,21.9-11.5,40.1-26.3,56-5.5,5.9-10.9,11.5-6.4,20.8.8,1.7-1.1,6-3,7.3s-6.1,1.1-7.8-.3-2.7-5.1-2.4-7.6a22.8,22.8,0,0,1,3.4-9.1c9.4-15.8,6.1-33.1,6.4-50C119.3,159.8,119.1,145,119.1,128.8Zm2.5.3v79.8c15.9-17.7,25.4-35.7,25.2-58C146.5,130.7,143.8,128.2,121.6,129.1Zm-1-82.7c0,23.8,0,46.1.1,68.3.1,4.1-2,10.5,5.6,9.9s15.2,4.3,18.5-7.1C151.2,95.4,140.8,61.9,120.6,46.4Zm70,96.6,26.9-16.9-26.9-15.4ZM70.7,129.7c-12.1-3.6-16.2,4-21.2,11.4C61.1,145,64.9,136.6,70.7,129.7ZM33.3,141.1c11.5,3.3,13.9-5.5,19.1-11.2C41.3,125.8,38.1,133.6,33.3,141.1Zm15.6-27.5c6.7,5.5,10,14.4,20.7,9.8C64.7,116.2,60.4,109.4,48.9,113.6Zm-12.6-2.9-2.1,3.4c3.8,6.6,7.4,13.6,19.9,9Z" style="fill:#fff"/></svg>