<svg id="Layer_1" data-name="Layer 1" xmlns="http://www.w3.org/2000/svg" viewBox="0 0 250 250"><title>icons</title><path d="M132.1,28c15.6,43.5,43.6,72.6,88.3,87.5-20.5,19.5-39.4,39.8-60.7,57.2-16,13-36.2,13.3-55.5,5.8-6.6-2.5-10.6-1.8-14.9,3.5-9.3,11.6-23,19.1-26.7,35.9-2.7,12.3-19.7,13.3-27.9,3.3-1.7-2.2-4.2-3.9-5.6-6.3-2.8-5-8.1-11.1-6.9-15.2,1.5-5.7,7.8-10.4,12.6-14.8,11.8-10.7,24.1-20.8,35.7-31.7,1.3-1.2-.2-6-1.2-8.9-9-26.1-3.8-48.8,15.6-68.4ZM60.8,178.7c-9.6,5.3-17.7,9.4-25.4,14.4-2.7,1.8-5.6,5.5-5.8,8.5s4.4,4.3,6.7,6.5,3.2,3.6,4.8,5.4,4.2,6.3,5.9,6.1,7.3-2.5,8.8-5.2c4.6-8.5,8.2-17.6,13-28.4Z" style="fill:#fff"/><path d="M216.9,105.2c-2-.7-5.7-1.4-9-3C180.1,89,159.2,68.5,146.3,40.6c-2.5-5.2-.9-12.3-1.1-18.5,5.9.3,12.6-1,17.5,1.3,29.7,14.2,52.1,35.9,63.8,67.2C230.2,100.7,227.1,105.3,216.9,105.2ZM203.7,81.3C202.4,63.8,183,45,167.9,45.6,169.3,61.1,186.3,78.5,203.7,81.3Z" style="fill:#fff"/></svg>