<svg id="Layer_1" data-name="Layer 1" xmlns="http://www.w3.org/2000/svg" viewBox="0 0 250 250"><title>icons</title><path d="M136.9,95,114,75.7l40.6-39.8c8.1,8.4,17.1,17.8,26.3,27.1s18.7,18.5,27.7,27.3L168.5,130l-17.4-20.4c-13.4,13.6-95.4,97.9-107.6,110.2-8.6,8.8-18.5,6.9-22.6-4.8-.9-2.4,1.4-6.9,3.5-9.2C35.1,194.7,132.4,97.8,136.9,95Z" style="fill:#fff"/><path d="M169.8,137l45.6-45.6c9.2,5.5,9.5,7.5,2.3,14.7L185,138.8C177.8,145.9,177.1,145.8,169.8,137Z" style="fill:#fff"/><path d="M153.3,28.2l-46,46.2c-8.5-6.5-8.6-7.5-1.2-15l32.1-32C145.8,19.9,146.1,20,153.3,28.2Z" style="fill:#fff"/></svg>