<svg id="Layer_1" data-name="Layer 1" xmlns="http://www.w3.org/2000/svg" viewBox="0 0 250 250"><title>icons</title><path d="M31.2,33.4l19-2.1L53,18H196.1l2.2,13.2,16.4,1.6c8.5,34.9,7.8,69.8-.9,104.6-6.8,27-18,51.8-38.3,71.7-31.7,31-72.8,30.6-103.4-1.4-27.5-28.8-39.4-64.6-42.2-103.2C28.2,81,30.6,57.1,31.2,33.4Zm92-2.4h0c-17,0-34-.8-50.9.2-14,.8-26,10.6-28.7,22.1-11,47.1-4.9,93,23.7,132.8,32.4,44.9,82.7,42.8,113.6-3.4C204.1,148,210,108.9,205.4,68.1,202.3,40.4,190.3,31,162.1,31Z" style="fill:#fff"/><path d="M50.4,51c8.6-.9,19,1.4,15-12.2H173.8c7.2,5.3,11.7,8.3,15.8,11.7s6.3,4.9,6.8,7.8c6.2,43.2,2.8,84.8-22.9,122C146,220.2,101,221.1,73.1,181.7S42.4,97.8,50.4,51Zm92.1,133.3V124.6h33.3V94.1H143.1c-.5-10.4-1-19.2-1.5-28.8H110.8c-.4,9.7-.8,18.5-1.3,29.2H76.4v30.8h34.2v59Z" style="fill:#fff"/></svg>