<svg id="Layer_1" data-name="Layer 1" xmlns="http://www.w3.org/2000/svg" viewBox="0 0 250 250"><title>icons</title><path d="M233.8,49.4c5.8,33.5-1.1,61.4-27.2,82.8-5.3,4.4-7.3,7.9-5.4,15s1.9,16.3,2.8,25.7H45.9c.9-9,1.1-17.9,2.9-26.5,1.2-6,.5-9.5-4.5-13.3C17.2,112.2,10.7,83.9,15.9,48.3c12.3,26.8,24.6,50.3,48.5,63.8L91.5,92l12,27.2,1.9-.4c0-10.3.2-20.6-.1-31-.4-8.8,3.5-12,12.1-11.9,31.3.4,26.3-2.4,26.9,26.3.1,5.9,0,11.8,1.6,18.3,4.6-8.7,9.3-17.4,14.5-27.3l24.2,18.6C202,103,208.2,95.3,233.8,49.4Z" style="fill:#fff"/><path d="M203,181.1v20.6H47V181.1ZM73.6,190.9c-4.9-3-8-6.5-10.5-6.1s-4.7,4.4-7,6.9c2.6,2.3,5.1,6.1,7.7,6.3S69.1,194.3,73.6,190.9Zm24.5-.1c-4.9-3-8-6.5-10.4-6.1s-4.7,4.5-7,7c2.5,2.3,5,6.1,7.6,6.3S93.5,194.4,98.1,190.8Zm73.7.9c-4.6-3.5-7.3-7.2-9.7-7s-6.7,4.1-6.8,6.4,3.7,6.5,6.3,6.9S167,194.9,171.8,191.7Zm24.7-1.1c-4.9-2.9-8.1-6.3-10.5-5.9s-6.3,4.8-6.1,7.1,4.5,6.1,7.1,6.2S192,194.3,196.5,190.6Zm-58.9-9.4c-3.5,4.7-7.2,7.5-7,9.9s4.1,4.9,6.3,7.4c2.4-2.3,6.4-4.4,6.8-7S140.7,186.1,137.6,181.2Zm-25.7.1c-3,4.9-6.5,8-6,10.4s4.6,4.6,7.1,6.8c2.2-2.6,5.9-5,6.1-7.7S115.5,185.7,111.9,181.3Z" style="fill:#fff"/></svg>