<svg id="Layer_1" data-name="Layer 1" xmlns="http://www.w3.org/2000/svg" viewBox="0 0 250 250"><title>icons</title><path d="M142.2,71.4,155,39l86,34.3c-5.1,11.6-9.9,22.3-14.9,33.8L216,104.8l-1.5,2.2c-11.6,15.7-21.1,33.5-35.1,46.5-30.8,28.7-67.7,31.5-106.5,18.2a133,133,0,0,1-16.2-6.4C41.2,157.7,25.8,149.8,9,141.4c4.7-9.5,9.6-19.7,14.7-30,8.8,4.6,16.6,11.1,25.2,12.6,16.6,2.9,33.8,4.8,50.5,3.6,25-1.8,41.9-17.9,47.9-42.1,1-4.1-.9-8.9-1.5-13.4Zm5.3-.8,75.9,31.5,11.4-26.4L157.6,44.8Z" style="fill:#fff"/></svg>