<svg id="Layer_1" data-name="Layer 1" xmlns="http://www.w3.org/2000/svg" viewBox="0 0 250 250"><title>icons</title><path d="M86.3,109.1c5.9-2.5,11.7-5.1,17.1-7.3,4.1-15.7.8-26.7-20.5-28,11.8-5,21.4,5,29.3-8.1s-2.3-16.8-6.7-27.3L122,50c19.7-9.2,19.7-9.2,17.6-32.2,7.8,5.4,2.6,20.7,19.2,20.9S172.1,26,178.6,19c3.3,8.5-7.4,18.2,5.8,26.5s17.8-3,28.6-7.5L200.5,55.3c8.8,19.8,8.8,19.8,31.7,17.8-4.8,8.2-20.7,2.2-20.7,19.1s13.1,13.1,21.8,22c-17.8-6.6-28.7-2.7-32.7,14.4l11,15.8c-10.6-4.6-15.7-13.4-27.9-5.7s-4.5,17.3-6.9,25.8c-7.3-5.1-2.8-18.9-17.9-19.4s-14.3,9.3-20.7,16.3c.6-5.6,1.1-11.2,1.7-17.3-6.7-6.7-12.3-6.8-19.5.8-20.3,21.3-41.4,41.7-62.2,62.5a10.5,10.5,0,0,1-2.1,1.2L39.4,191.1l60.1-59.2c2.8-2.7,6.1-5,7.9-8.2s2.5-7.2,1.2-9.6-5.3-4.4-8.4-4.6-8.9.9-13.4,1.6A19.4,19.4,0,0,1,86.3,109.1Zm30.4-28.5-4.8-5.5L145.4,43l4.6,4.6C132,50.7,120.5,62.1,116.7,80.6Z" style="fill:#fff"/><path d="M33,199l16.4,16C35,232.7,27.7,235.9,20.2,228.3S16.1,214.8,33,199Z" style="fill:#fff"/></svg>