<svg id="Layer_1" data-name="Layer 1" xmlns="http://www.w3.org/2000/svg" viewBox="0 0 250 250"><title>icons</title><path d="M124.8,20.3A104.6,104.6,0,0,1,229.6,125.7c-.2,56-46.9,104.1-104.6,104S20.3,183.1,20.4,124.3A103.8,103.8,0,0,1,124.8,20.3Zm.1,187.4c0-7.8.5-15.8-.1-23.8-1.3-17,7.7-37.5-15.7-47.5-1.7-.7-1.8-4.4-3.4-6.1s-4.6-5.2-7-5.3c-19-.4-38-.2-56.8-.2C37.3,168.7,80.6,212.1,124.9,207.7ZM208.1,125c2.5-46-41.6-89.3-83.5-82.5,0,10.6-.2,21.5,0,32.4.2,13.9-4.8,29.9,14.4,36.7,2,.7,2.5,5.1,4.5,7s6.2,6,9.5,6.1C171,125.3,189.1,125,208.1,125Z" style="fill:#fff"/></svg>