<svg id="Layer_1" data-name="Layer 1" xmlns="http://www.w3.org/2000/svg" viewBox="0 0 250 250"><title>icons</title><path d="M32.6,224.5c-10.4-5.9-5.5-8.9-2.3-12.1L130.6,112c5.6-5.6,11.7-10.8,16.8-16.8s13.7-13.1,17.1-24,14.8-22.4,23.7-32.7c2.8-3.3,8.7-4.2,13.3-5.8,6.4-2.3,13-4.2,22.2-7.2-7.8,14.4-5.2,30.6-18.8,39.2-11.5,7.2-20.3,19.1-36.4,22.3,2.8,8.1,5.8,17.1,8.8,26.1l-1.5.7-7.1-8.7c.6,4.2,1,7.4,1.4,10.5l-2.5.7c-2.1-6.5-4.1-12.9-6.5-20.5-1.2,6.5-2.2,11.9-3.1,17.3l-2.4.2-1.1-11.8ZM172.1,78.2l3.6,3.2c15.8-13.6,39-20.8,39-47.7-20.1,3.1-41.8,22.3-46.8,43.9L207.8,38l3.8,4Z" style="fill:#fff"/></svg>