<svg id="Layer_1" data-name="Layer 1" xmlns="http://www.w3.org/2000/svg" viewBox="0 0 250 250"><title>icons</title><path d="M227,23.2c-7.9,26.7-14.7,50.8-22.2,74.5-1.1,3.5-5.3,6.4-8.7,8.6-28,18.6-56.1,37-84.1,55.5-18.3,12-18.3,12-3.8,27.4,1.7,1.8,3.2,3.8,4.9,5.8-5,2.9-5,2.9-26-14.1L56,211.6c-3,3-6.3,5.8-8.9,9.2-6.6,8.5-12.2,7.4-19.6.1s-4.4-11.9,1.6-17.6c11.1-10.5,21.5-21.8,32.7-32.2,7.1-6.5,7.3-11.9-.3-17.4-4.5-3.3-9.2-6.1-13.8-9.1l5-6.6c3.3,1.9,7,3.1,9.7,5.6,13.4,12.6,13.9,12.6,24.3-3,19-28.7,37.7-57.6,57.3-85.9a34.1,34.1,0,0,1,16.5-11.9C181.4,35.9,202.8,30.2,227,23.2ZM97.2,157l2.9,3,92.5-61c1.8-1.1,4-2.5,4.6-4.3,5.9-19.2,11.6-38.5,17.9-59.6-18.9,5.4-35.3,9.6-51.3,15.1a29.7,29.7,0,0,0-14.4,10.7c-18.1,26.3-35.4,53-52.9,79.6-2.2,3.3-4.1,6.8-6.1,10.2l2.8,2.3L202.9,43.7l3.5,3.6Z" style="fill:#fff"/></svg>