<svg id="Layer_1" data-name="Layer 1" xmlns="http://www.w3.org/2000/svg" viewBox="0 0 250 250"><title>icons</title><path d="M170.8,65.7c1.6,1.7,3,3.7,4.9,5.1,35.6,25,50.1,65.5,37.6,105.5-11.6,37.1-47.8,64.2-86.6,64.7s-75.6-24.6-89.2-62.9-.4-79.4,34-105.6a56.2,56.2,0,0,0,4.4-4.1l-.4.2c18.3-8.2,37-15.9,57.5-12.6,13,2.1,25.5,6.6,38.3,10ZM99.1,111.9l-.3-3c2.3-.5,4.6-.8,6.8-1.5l13.8-4.2-12.1-5.8c-.4-.3-.4-1.4-.8-2.7l12.4-2.5-23-20.8C72.8,80,54.4,98.3,46.4,125.1L67,144.3c1.5-5.6,2.6-9.6,4.5-16.4,1.8,4.2,2.3,5.6,3,6.9s3.2,5.4,4.9,8.1c1.2-3,2.8-6,3.5-9.2s.7-7.2,1-10.9l3.2.2c.6,6.3,1.3,12.6,2,19.4h29.7V113.6Zm104.6,13.2c-9.2-27.7-27-46.5-53.9-54.8L129.4,92.1l17.5,3.6-7.6,3-8.5,4.6c2.9,1.4,5.8,3.2,8.9,4s7.7,1,11.5,1.5l-.3,3.4-19.5,1.3v28.9h29.2c.9-7.1,1.8-13.4,2.6-19.7l4.1.4c0,5.2-.8,10.6.2,15.6,1.5,8.1,6,5.3,11.4-9.2,1.4,5.4,2.4,9.4,3.8,15Zm-97.1,79.1v-2.9c1.9-.4,3.9-.5,5.5-1.3s4.9-3,7.3-4.5c-2.6-1.3-5-3.3-7.7-3.9-4.3-.9-8.8-.9-13.2-1.2l.3-3.1,20.1-1.8V154.4H89c-.8,7.9-1.4,14.7-2.1,21.6l-3.9-.3c0-5.6.3-11.3-.2-16.9-.2-1.8-2.5-3.4-3.8-5.1-1.5,1.6-3.7,2.9-4.3,4.7s-1,6.6-1.5,9.9H70.5c-1-4.8-2.1-9.6-3.4-15.6L47.4,174c9,26.4,27.3,43.8,54.1,52.6l-2.8-4.4,23.9-14.8Zm44.3-17.1c0,1,0,2,.1,3s-2.2.9-3.4,1.2l-16.8,3.6,13.2,8.8-14.9,4,19.4,18.6c28.3-9.1,47.9-28.8,53.5-53.1l-19.5-20.9c-1.3,6.4-2.2,11.2-3.1,15.9-2.7-2.3-2.8-4.7-3.7-6.6a79.1,79.1,0,0,0-4.8-7.9c-1.2,2.7-2.9,5.3-3.4,8.1-.9,4.7-1,9.6-1.4,14.4l-3.5-.3c-.6-7.1-1.2-14.2-1.8-21.7H131.3v31.7ZM142.6,72.5l-1.7-4.4H108.8l-1.5,4.8c6,3.3,11.9,9.1,17.9,9.1S136.8,75.9,142.6,72.5ZM44.3,164l5.1,2.5c2.9-6,8.1-12.1,8.1-18.1s-5.8-10.7-9.1-16.1l-4.1,1.9Zm160.9-29.7-3.7-1.9c-3.2,5.4-9.1,10.8-9.1,16.1s5.4,11.9,8.4,17.9l4.4-1.6ZM139.3,229l1.9-5.1c-5.8-2.5-11.7-7-17.5-6.9s-9.8,5.5-14.7,8.6l1.9,3.4Z" style="fill:#fff"/><path d="M75.9,68.4c-5.9-3.2-4.6-6.1.6-8.3,10.6-4.5,21.4-8.7,32-12.9-1.6-5.4-5-11.6-4.5-17.4S108,18,112.1,14c7.5-7.3,19.5-6.2,27.3.7s9.2,18,1.5,32l38,14.9-1.1,3.5-7,.6.5.3c-8.5-3.8-16.6-9.4-25.4-11C121,50.4,96.4,51,75.5,68.6Zm50.3-53.8c-10.3,0-18.3,7.7-17.6,16.7s6.7,15.1,16.3,15.8,16.9-7.5,16.3-16.7S134.8,15.5,126.2,14.6Z" style="fill:#fff"/></svg>