<svg id="Layer_1" data-name="Layer 1" xmlns="http://www.w3.org/2000/svg" viewBox="0 0 250 250"><title>icons</title><path d="M49.3,79.1H170c3.6,22.2,7.1,43.9,11.1,69.2,12.3-18.1,20.2-33.8,16.9-53-2.5-14.9-16.3-25.4-31.9-25.4H53.6c-3.3-24.4,0-28.5,22-28.5,23.7,0,47.5-.3,71.3,0,20.3.2,40.7.9,61.1,1.6,13.4.5,17.8,8.7,13.1,20.9-2.3,5.8-2.7,13.1-1.7,19.3,5.6,33.3-3.8,61.1-23.7,88.6-28.9,39.7-68.9,38.6-109.7,35.7-15.9-1.1-31.4-7.8-46.9-12.6C29,191.7,25.4,184.5,27.8,174,35.1,142.7,42.1,111.3,49.3,79.1Z" style="fill:#fff"/></svg>