<svg id="Layer_1" data-name="Layer 1" xmlns="http://www.w3.org/2000/svg" viewBox="0 0 250 250"><title>icons</title><path d="M164.5,31.7l28.9,29.8c-1.1,1.3-2.7,3.5-6.2,8l50,27.7c.3,17-23.6,42.6-50.2,51.9-10.6-17.1-20.9-34-32.1-52.1-27.3,21.9-53,41.6-77.2,62.8-6.4,5.5-8.7,15.8-12.2,24.2s-5.6,16.8-8.9,25-9.5,10.6-18.3,8.7c-25.1-5.4-33.6-25.1-16.7-44.2s37.8-38.2,57-57C96,99.3,117.4,86.7,131.1,65,139.1,52.2,152.8,43,164.5,31.7ZM133.6,76.3c-9.4,8.7-18,16.4-26.5,24.3-24.3,22.3-48.7,44.6-72.7,67.2a69.3,69.3,0,0,0-12.9,17.1c-5.4,9.7-.7,18.8,11.2,24.2s16,3.6,20.7-9A136.9,136.9,0,0,0,59,182.6c3.8-15.5,11.9-27.7,24.8-37.5,22-16.5,43.3-34.1,65.5-51.7Z" style="fill:#fff"/></svg>