<svg id="Layer_1" data-name="Layer 1" xmlns="http://www.w3.org/2000/svg" viewBox="0 0 469.4 441.4"><title>monster</title><path d="M491,301c-8,20-52.5-16.8-55.8,13.9-7.6,70-24.7,155.6-55.1,178.8S299.1,421,257.5,421c-46.8,0-87.2,98.9-119.5,70-27.4-24.5-48.5-120-57.8-190.4C76.8,275.1,41,310,27,282c-15-30.1,50.5-78.3,55.2-94.4C104.3,111.6,174.4,56,257.5,56A182.6,182.6,0,0,1,433.1,188.5C437.6,204.4,509.9,253.6,491,301Z" transform="translate(-24.8 -56)" style="fill:#5e46ff"/><ellipse cx="167.7" cy="136.5" rx="51.5" ry="73.5" style="fill:#fff"/><ellipse cx="301.7" cy="136.5" rx="51.5" ry="73.5" style="fill:#fff"/><circle cx="232.7" cy="246.5" r="31.5"/></svg>