<svg id="Layer_1" data-name="Layer 1" xmlns="http://www.w3.org/2000/svg" viewBox="0 0 926.5 956.7"><title>tentacle</title><path d="M933.5,624.5s-332-71-451-258-141-279-236-333-267.4,45.8-235,108C43,202,96,109,171,126c46.9,10.6,143,61,140.5,283.5C309.9,547.5,425,754,637,859c183.6,91,297,74,297,74Z" transform="translate(-7.5 -18)" style="fill:#ff4aff"/><ellipse cx="92.5" cy="137" rx="40.5" ry="24" transform="translate(-49.2 22.5) rotate(-20.3)" style="fill:#fff"/><ellipse cx="204.5" cy="137.5" rx="29.5" ry="43.5" transform="translate(-24.3 227.8) rotate(-60)" style="fill:#fff"/><ellipse cx="291.9" cy="255.2" rx="29.8" ry="62.3" transform="translate(-62.5 64) rotate(-14.6)" style="fill:#fff"/><ellipse cx="322.5" cy="462.5" rx="39.5" ry="70.5" transform="translate(-62.2 25.4) rotate(-7.1)" style="fill:#fff"/><ellipse cx="399" cy="652" rx="50" ry="78" transform="translate(-239.2 202) rotate(-24.1)" style="fill:#fff"/><ellipse cx="576.8" cy="818.5" rx="57.5" ry="95" transform="translate(-431.2 759.7) rotate(-52.5)" style="fill:#fff"/><ellipse cx="794.8" cy="911.5" rx="57.5" ry="95" transform="translate(-343.1 1323.4) rotate(-69.7)" style="fill:#fff"/></svg>